# xmcd
#
# Track frame offsets: 
#        150
#        16457
#        43740
#        58872
#        82292
#        103680
#        119580
#        142512
#        161530
#
# Disc length: 2387 seconds
#
# Revision: 73
# Processed by: cddbd v1.5.2PL0 Copyright (c) Steve Scherf et al.
# Submitted via: ExactAudioCopy v0.99pb5
#
DISCID=78095109
DTITLE=AC DC - Powerage
DYEAR=1978
DGENRE=Hard Rock
TTITLE0=Rock 'n' Roll Damnation
TTITLE1=Down Payment Blues
TTITLE2=Gimme A Bullet
TTITLE3=Riff Raff
TTITLE4=Sin City
TTITLE5=What's Next To The Moon
TTITLE6=Gone Shootin'
TTITLE7=Up To My Neck In You
TTITLE8=Kicked In The Teeth
EXTD=
EXTT0=
EXTT1=
EXTT2=
EXTT3=
EXTT4=
EXTT5=
EXTT6=
EXTT7=
EXTT8=
PLAYORDER=
